<svg xmlns="http://www.w3.org/2000/svg" xmlns:xlink="http://www.w3.org/1999/xlink" width="100" height="87.912" viewBox="0 0 100 87.912">
  <defs>
    <linearGradient id="linear-gradient" x1="0.011" x2="0.99" gradientUnits="objectBoundingBox">
      <stop offset="0" stop-color="#fff" stop-opacity="0"/>
      <stop offset="0.336" stop-color="#fff"/>
      <stop offset="0.508" stop-color="#fff"/>
      <stop offset="0.677" stop-color="#fff"/>
      <stop offset="1" stop-color="#fff" stop-opacity="0"/>
    </linearGradient>
  </defs>
  <g id="arrow-scroll" transform="translate(-910 -942)">
    <path id="_1" data-name="1" d="M-3944,155a49.693,49.693,0,0,1-19.462-3.929,49.861,49.861,0,0,1-15.893-10.715,49.835,49.835,0,0,1-10.715-15.893A49.7,49.7,0,0,1-3994,105h2a47.677,47.677,0,0,0,14.075,33.925A47.674,47.674,0,0,0-3944,153a48.055,48.055,0,0,0,48-48h2a49.693,49.693,0,0,1-3.929,19.463,49.837,49.837,0,0,1-10.716,15.893,49.844,49.844,0,0,1-15.892,10.715A49.7,49.7,0,0,1-3944,155Z" transform="translate(4904 837)" fill="url(#linear-gradient)"/>
    <g id="стрелка" transform="translate(5 82)">
      <g id="Arrow_Right_White" data-name="Arrow Right White" transform="translate(964.976 908.911) rotate(90)">
        <path id="Subtraction_5" data-name="Subtraction 5" d="M-6276-384.112V-388c2.543-2.572,4.424-4.492,5.592-5.706-3.089-.025-7.707-.039-13.725-.039-9.714,0-19.745.035-20.857.039h-.01v-2.383l.563,0c9.506-.038,16.287-.046,20.3-.046,5.95,0,10.569.017,13.728.049-1.176-1.07-3.057-2.879-5.592-5.374v-3.6l10,10.169-10,10.783Z" transform="translate(6305 405.065)" fill="#fff"/>
      </g>
    </g>
  </g>
</svg>
