<svg xmlns="http://www.w3.org/2000/svg" width="19" height="19" viewBox="0 0 19 19">
  <path id="Path_8" data-name="Path 8" d="M18.97,14.721q-.081-.243-1.026-.715-.256-.149-.728-.4t-.857-.472q-.385-.216-.722-.418-.054-.04-.337-.236a3.793,3.793,0,0,0-.479-.29.884.884,0,0,0-.385-.094,1.12,1.12,0,0,0-.674.384,6.57,6.57,0,0,0-.742.837,8.136,8.136,0,0,1-.715.837,1.028,1.028,0,0,1-.621.385.918.918,0,0,1-.3-.067c-.121-.045-.214-.083-.277-.115s-.17-.094-.324-.189-.239-.146-.257-.155a14.181,14.181,0,0,1-3.171-2.348A14.173,14.173,0,0,1,5,8.487q-.013-.027-.155-.256t-.189-.324a2.924,2.924,0,0,1-.115-.277.913.913,0,0,1-.067-.3,1.028,1.028,0,0,1,.385-.621A8.127,8.127,0,0,1,5.7,5.991a6.567,6.567,0,0,0,.837-.742,1.12,1.12,0,0,0,.385-.675.881.881,0,0,0-.094-.385,3.751,3.751,0,0,0-.29-.479q-.2-.283-.236-.337-.2-.337-.418-.722t-.472-.857q-.256-.472-.4-.729Q4.531.122,4.288.041A.756.756,0,0,0,4,0a4.446,4.446,0,0,0-.951.135,5.344,5.344,0,0,0-.924.283A3.617,3.617,0,0,0,.7,2.064,5.231,5.231,0,0,0,.01,4.574a5.211,5.211,0,0,0,.047.708,5.822,5.822,0,0,0,.169.776q.121.432.2.641T.7,7.448q.2.54.243.661a12.222,12.222,0,0,0,1.12,2.361A20.008,20.008,0,0,0,4.969,14.04a20.018,20.018,0,0,0,3.569,2.908,12.242,12.242,0,0,0,2.362,1.12q.122.04.661.243t.749.277q.209.074.641.2a5.874,5.874,0,0,0,.776.169,5.006,5.006,0,0,0,3.219-.641,3.615,3.615,0,0,0,1.646-1.431,5.314,5.314,0,0,0,.283-.924,4.436,4.436,0,0,0,.135-.951A.752.752,0,0,0,18.97,14.721Z" transform="translate(-0.01)" fill="#b3866f"/>
</svg>
