<svg xmlns="http://www.w3.org/2000/svg" width="41.999" height="41.999" viewBox="0 0 41.999 41.999">
  <path id="Subtraction_6" data-name="Subtraction 6" d="M21,42A21,21,0,0,1,6.151,6.151a21,21,0,0,1,29.7,29.7A20.862,20.862,0,0,1,21,42Zm8.035-29.84a42.8,42.8,0,0,0-5.062,1.551l-3.736,1.3-5.311,1.846c-5.521,1.921-5.915,2.125-6.012,3.125-.106,1.091.421,1.515,4.341,3.488A16.8,16.8,0,0,1,17.14,25.8c.228.326,1.151,2.046,2.058,3.832a28.56,28.56,0,0,0,2.15,3.752,1.531,1.531,0,0,0,1.076.487,1.1,1.1,0,0,0,.84-.374,45.047,45.047,0,0,0,2.75-7c.152-.444.626-1.817.626-1.817l1.922-5.559c1-2.892,1.817-5.447,1.817-5.7A1.378,1.378,0,0,0,29.035,12.159Z" transform="translate(0)" fill="#b3866f"/>
</svg>
