<svg xmlns="http://www.w3.org/2000/svg" width="42.581" height="42.581" viewBox="0 0 42.581 42.581">
  <path id="WhatsApp_1_" d="M15.341,10.815c-.413-.989-.726-1.026-1.351-1.052-.213-.012-.45-.025-.713-.025A3.089,3.089,0,0,0,11.1,10.5a6.8,6.8,0,0,0-2.177,5.182c0,3.054,2.227,6.008,2.528,6.421s4.342,6.771,10.6,9.363c4.893,2.028,6.344,1.84,7.458,1.6,1.627-.35,3.666-1.553,4.18-3a5.287,5.287,0,0,0,.363-2.954c-.15-.263-.563-.413-1.189-.726s-3.666-1.815-4.242-2.015a1.188,1.188,0,0,0-1.526.463,26.126,26.126,0,0,1-1.664,2.2,1.345,1.345,0,0,1-1.5.238A15.688,15.688,0,0,1,18.932,24.2,18.933,18.933,0,0,1,15.479,19.9c-.363-.626-.038-.989.25-1.327.313-.388.613-.663.926-1.027a3.729,3.729,0,0,0,.688-.976,1.271,1.271,0,0,0-.087-1.152C17.105,15.108,15.854,12.054,15.341,10.815ZM21.284,0A21.276,21.276,0,0,0,4.054,33.769L1.4,41.68l8.184-2.615A21.287,21.287,0,1,0,21.3,0h-.012Z" fill="#b3866f" fill-rule="evenodd"/>
</svg>
